<mxfile host="app.diagrams.net" modified="2023-11-09T08:13:08.154Z" agent="Mozilla/5.0 (Windows NT 10.0; Win64; x64) AppleWebKit/537.36 (KHTML, like Gecko) Chrome/119.0.0.0 Safari/537.36 Edg/119.0.0.0" etag="CtjLDVs8_miJsp0ecFya" version="22.1.0" type="google">
  <diagram id="prtHgNgQTEPvFCAcTncT" name="Page-1">
    <mxGraphModel grid="1" page="1" gridSize="10" guides="1" tooltips="1" connect="1" arrows="1" fold="1" pageScale="1" pageWidth="827" pageHeight="1169" math="0" shadow="0">
      <root>
        <mxCell id="0" />
        <mxCell id="1" parent="0" />
        <mxCell id="0drZBIcAvg-jgpcU-8fy-210" value="&lt;font style=&quot;font-size: 18px;&quot;&gt;Hệ thống&lt;/font&gt;" style="swimlane;whiteSpace=wrap;html=1;fillColor=#97D077;container=0;movable=1;resizable=1;rotatable=1;deletable=1;editable=1;locked=0;connectable=1;" vertex="1" parent="1">
          <mxGeometry x="-528" y="556" width="758" height="1684" as="geometry" />
        </mxCell>
        <mxCell id="A0Qf2ccuswHU8jVw-azO-38" style="edgeStyle=orthogonalEdgeStyle;rounded=0;orthogonalLoop=1;jettySize=auto;html=1;" edge="1" parent="0drZBIcAvg-jgpcU-8fy-210" source="A0Qf2ccuswHU8jVw-azO-35" target="A0Qf2ccuswHU8jVw-azO-37">
          <mxGeometry relative="1" as="geometry" />
        </mxCell>
        <mxCell id="A0Qf2ccuswHU8jVw-azO-35" value="&lt;span style=&quot;font-size: 18px;&quot;&gt;Đối chiếu số trang in trong tài khoản&lt;/span&gt;" style="rounded=1;whiteSpace=wrap;html=1;fillColor=#97D077;" vertex="1" parent="0drZBIcAvg-jgpcU-8fy-210">
          <mxGeometry x="306.75" y="374" width="171.75" height="74" as="geometry" />
        </mxCell>
        <mxCell id="A0Qf2ccuswHU8jVw-azO-55" style="edgeStyle=orthogonalEdgeStyle;rounded=0;orthogonalLoop=1;jettySize=auto;html=1;entryX=0.5;entryY=0;entryDx=0;entryDy=0;" edge="1" parent="0drZBIcAvg-jgpcU-8fy-210" source="A0Qf2ccuswHU8jVw-azO-37" target="A0Qf2ccuswHU8jVw-azO-54">
          <mxGeometry relative="1" as="geometry" />
        </mxCell>
        <mxCell id="A0Qf2ccuswHU8jVw-azO-37" value="" style="rhombus;whiteSpace=wrap;html=1;fillColor=#97D077;" vertex="1" parent="0drZBIcAvg-jgpcU-8fy-210">
          <mxGeometry x="359.25" y="664" width="66.75" height="34" as="geometry" />
        </mxCell>
        <mxCell id="A0Qf2ccuswHU8jVw-azO-39" style="edgeStyle=orthogonalEdgeStyle;rounded=0;orthogonalLoop=1;jettySize=auto;html=1;exitX=0.5;exitY=1;exitDx=0;exitDy=0;" edge="1" parent="0drZBIcAvg-jgpcU-8fy-210" source="A0Qf2ccuswHU8jVw-azO-35" target="A0Qf2ccuswHU8jVw-azO-35">
          <mxGeometry relative="1" as="geometry" />
        </mxCell>
        <mxCell id="A0Qf2ccuswHU8jVw-azO-52" value="&lt;font style=&quot;font-size: 18px;&quot;&gt;Không đủ trang in&lt;/font&gt;" style="text;html=1;strokeColor=none;fillColor=none;align=center;verticalAlign=middle;whiteSpace=wrap;rounded=0;" vertex="1" parent="0drZBIcAvg-jgpcU-8fy-210">
          <mxGeometry x="217.62" y="644" width="153.25" height="30" as="geometry" />
        </mxCell>
        <mxCell id="A0Qf2ccuswHU8jVw-azO-53" value="&lt;span style=&quot;font-size: 18px;&quot;&gt;Chọn máy in&lt;/span&gt;" style="rounded=1;whiteSpace=wrap;html=1;fillColor=#97D077;" vertex="1" parent="0drZBIcAvg-jgpcU-8fy-210">
          <mxGeometry x="306.75" y="954" width="171.75" height="74" as="geometry" />
        </mxCell>
        <mxCell id="A0Qf2ccuswHU8jVw-azO-59" style="edgeStyle=orthogonalEdgeStyle;rounded=0;orthogonalLoop=1;jettySize=auto;html=1;" edge="1" parent="0drZBIcAvg-jgpcU-8fy-210" source="A0Qf2ccuswHU8jVw-azO-54" target="A0Qf2ccuswHU8jVw-azO-53">
          <mxGeometry relative="1" as="geometry" />
        </mxCell>
        <mxCell id="A0Qf2ccuswHU8jVw-azO-54" value="" style="rhombus;whiteSpace=wrap;html=1;fillColor=#97D077;" vertex="1" parent="0drZBIcAvg-jgpcU-8fy-210">
          <mxGeometry x="359.24" y="834" width="66.75" height="34" as="geometry" />
        </mxCell>
        <mxCell id="A0Qf2ccuswHU8jVw-azO-58" value="&lt;span style=&quot;font-size: 18px;&quot;&gt;Đủ trang in trong &lt;br&gt;tài khoản&lt;/span&gt;" style="text;html=1;strokeColor=none;fillColor=none;align=center;verticalAlign=middle;whiteSpace=wrap;rounded=0;" vertex="1" parent="0drZBIcAvg-jgpcU-8fy-210">
          <mxGeometry x="225.62" y="754" width="177" height="30" as="geometry" />
        </mxCell>
        <mxCell id="A0Qf2ccuswHU8jVw-azO-61" value="&lt;span style=&quot;font-size: 18px;&quot;&gt;Tải file lại&lt;/span&gt;" style="text;html=1;strokeColor=none;fillColor=none;align=center;verticalAlign=middle;whiteSpace=wrap;rounded=0;" vertex="1" parent="0drZBIcAvg-jgpcU-8fy-210">
          <mxGeometry x="426" y="812" width="112" height="30" as="geometry" />
        </mxCell>
        <mxCell id="A0Qf2ccuswHU8jVw-azO-69" value="&lt;span style=&quot;font-size: 18px;&quot;&gt;Chọn máy in khác&lt;/span&gt;" style="text;html=1;strokeColor=none;fillColor=none;align=center;verticalAlign=middle;whiteSpace=wrap;rounded=0;" vertex="1" parent="0drZBIcAvg-jgpcU-8fy-210">
          <mxGeometry x="101.81" y="1244" width="177" height="30" as="geometry" />
        </mxCell>
        <mxCell id="bI-rjmDT_k0yChibbdWb-27" style="edgeStyle=orthogonalEdgeStyle;rounded=0;orthogonalLoop=1;jettySize=auto;html=1;" edge="1" parent="0drZBIcAvg-jgpcU-8fy-210" source="A0Qf2ccuswHU8jVw-azO-93" target="A0Qf2ccuswHU8jVw-azO-96">
          <mxGeometry relative="1" as="geometry" />
        </mxCell>
        <mxCell id="A0Qf2ccuswHU8jVw-azO-93" value="&lt;font size=&quot;3&quot;&gt;In&amp;nbsp;&lt;/font&gt;" style="rounded=1;whiteSpace=wrap;html=1;fillColor=#97D077;" vertex="1" parent="0drZBIcAvg-jgpcU-8fy-210">
          <mxGeometry x="324.69" y="1330" width="171.75" height="74" as="geometry" />
        </mxCell>
        <mxCell id="A0Qf2ccuswHU8jVw-azO-96" value="&lt;font size=&quot;3&quot;&gt;Gửi thông báo tới sinh viên và lưu log&lt;/font&gt;" style="rounded=1;whiteSpace=wrap;html=1;fillColor=#97D077;" vertex="1" parent="0drZBIcAvg-jgpcU-8fy-210">
          <mxGeometry x="538" y="1330" width="171.75" height="74" as="geometry" />
        </mxCell>
        <mxCell id="bI-rjmDT_k0yChibbdWb-25" style="edgeStyle=orthogonalEdgeStyle;rounded=0;orthogonalLoop=1;jettySize=auto;html=1;entryX=0;entryY=0.5;entryDx=0;entryDy=0;" edge="1" parent="0drZBIcAvg-jgpcU-8fy-210" source="bI-rjmDT_k0yChibbdWb-17" target="A0Qf2ccuswHU8jVw-azO-93">
          <mxGeometry relative="1" as="geometry" />
        </mxCell>
        <mxCell id="bI-rjmDT_k0yChibbdWb-17" value="&lt;font size=&quot;3&quot;&gt;Vào hàng đợi chờ in&lt;/font&gt;" style="rounded=1;whiteSpace=wrap;html=1;fillColor=#97D077;" vertex="1" parent="0drZBIcAvg-jgpcU-8fy-210">
          <mxGeometry x="101.81" y="1330" width="171.75" height="74" as="geometry" />
        </mxCell>
        <mxCell id="0drZBIcAvg-jgpcU-8fy-209" value="&lt;font style=&quot;font-size: 18px;&quot;&gt;Sinh viên&lt;/font&gt;" style="swimlane;whiteSpace=wrap;html=1;fillColor=#FF9999;gradientColor=none;container=0;movable=1;resizable=1;rotatable=1;deletable=1;editable=1;locked=0;connectable=1;" vertex="1" parent="1">
          <mxGeometry x="-965" y="556" width="437" height="1684" as="geometry" />
        </mxCell>
        <mxCell id="PMtced_CVtok1pb0Ue7u-2" style="edgeStyle=orthogonalEdgeStyle;rounded=0;orthogonalLoop=1;jettySize=auto;html=1;endArrow=open;endFill=0;" edge="1" parent="0drZBIcAvg-jgpcU-8fy-209" source="PMtced_CVtok1pb0Ue7u-1" target="VmOLZ52_Wkp5shSwFpp9-11">
          <mxGeometry relative="1" as="geometry" />
        </mxCell>
        <mxCell id="PMtced_CVtok1pb0Ue7u-1" value="" style="ellipse;fillColor=strokeColor;html=1;" vertex="1" parent="0drZBIcAvg-jgpcU-8fy-209">
          <mxGeometry x="190" y="74" width="56.5" height="57" as="geometry" />
        </mxCell>
        <mxCell id="A0Qf2ccuswHU8jVw-azO-6" style="edgeStyle=orthogonalEdgeStyle;rounded=0;orthogonalLoop=1;jettySize=auto;html=1;entryX=0.5;entryY=0;entryDx=0;entryDy=0;" edge="1" parent="0drZBIcAvg-jgpcU-8fy-209" source="VmOLZ52_Wkp5shSwFpp9-11" target="A0Qf2ccuswHU8jVw-azO-3">
          <mxGeometry relative="1" as="geometry">
            <Array as="points">
              <mxPoint x="218" y="374" />
              <mxPoint x="218" y="374" />
            </Array>
          </mxGeometry>
        </mxCell>
        <mxCell id="VmOLZ52_Wkp5shSwFpp9-11" value="&lt;font style=&quot;font-size: 18px;&quot;&gt;Tải file in&lt;br&gt;&lt;font style=&quot;&quot;&gt;lên hệ thống&lt;/font&gt;&lt;/font&gt;" style="rounded=1;whiteSpace=wrap;html=1;fillColor=#FF9999;" vertex="1" parent="0drZBIcAvg-jgpcU-8fy-209">
          <mxGeometry x="132.63" y="174" width="171.75" height="74" as="geometry" />
        </mxCell>
        <mxCell id="A0Qf2ccuswHU8jVw-azO-7" style="edgeStyle=orthogonalEdgeStyle;rounded=0;orthogonalLoop=1;jettySize=auto;html=1;entryX=0;entryY=0.5;entryDx=0;entryDy=0;exitX=0;exitY=0.5;exitDx=0;exitDy=0;" edge="1" parent="0drZBIcAvg-jgpcU-8fy-209" source="A0Qf2ccuswHU8jVw-azO-3" target="VmOLZ52_Wkp5shSwFpp9-11">
          <mxGeometry relative="1" as="geometry">
            <mxPoint x="185" y="384" as="sourcePoint" />
            <Array as="points">
              <mxPoint x="65" y="391" />
              <mxPoint x="65" y="211" />
            </Array>
          </mxGeometry>
        </mxCell>
        <mxCell id="A0Qf2ccuswHU8jVw-azO-11" style="edgeStyle=orthogonalEdgeStyle;rounded=0;orthogonalLoop=1;jettySize=auto;html=1;entryX=0.5;entryY=0;entryDx=0;entryDy=0;" edge="1" parent="0drZBIcAvg-jgpcU-8fy-209" source="A0Qf2ccuswHU8jVw-azO-3" target="A0Qf2ccuswHU8jVw-azO-9">
          <mxGeometry relative="1" as="geometry" />
        </mxCell>
        <mxCell id="A0Qf2ccuswHU8jVw-azO-3" value="" style="rhombus;whiteSpace=wrap;html=1;fillColor=#F19C99;" vertex="1" parent="0drZBIcAvg-jgpcU-8fy-209">
          <mxGeometry x="185.13" y="374" width="66.75" height="34" as="geometry" />
        </mxCell>
        <mxCell id="A0Qf2ccuswHU8jVw-azO-8" value="&lt;font style=&quot;font-size: 18px;&quot;&gt;Tải lại file khác&lt;/font&gt;" style="text;html=1;strokeColor=none;fillColor=none;align=center;verticalAlign=middle;whiteSpace=wrap;rounded=0;" vertex="1" parent="0drZBIcAvg-jgpcU-8fy-209">
          <mxGeometry x="63.25" y="354" width="155" height="30" as="geometry" />
        </mxCell>
        <mxCell id="A0Qf2ccuswHU8jVw-azO-9" value="&lt;span style=&quot;font-size: 18px;&quot;&gt;Chọn thông số in&lt;/span&gt;" style="rounded=1;whiteSpace=wrap;html=1;fillColor=#FF9999;" vertex="1" parent="0drZBIcAvg-jgpcU-8fy-209">
          <mxGeometry x="132.37" y="504" width="171.75" height="74" as="geometry" />
        </mxCell>
        <mxCell id="A0Qf2ccuswHU8jVw-azO-12" value="&lt;font style=&quot;font-size: 18px;&quot;&gt;Tiếp tục với file đã gửi&lt;/font&gt;" style="text;html=1;strokeColor=none;fillColor=none;align=center;verticalAlign=middle;whiteSpace=wrap;rounded=0;" vertex="1" parent="0drZBIcAvg-jgpcU-8fy-209">
          <mxGeometry x="35" y="434" width="183.25" height="30" as="geometry" />
        </mxCell>
        <mxCell id="A0Qf2ccuswHU8jVw-azO-44" style="edgeStyle=orthogonalEdgeStyle;rounded=0;orthogonalLoop=1;jettySize=auto;html=1;" edge="1" parent="0drZBIcAvg-jgpcU-8fy-209" source="A0Qf2ccuswHU8jVw-azO-40" target="A0Qf2ccuswHU8jVw-azO-43">
          <mxGeometry relative="1" as="geometry" />
        </mxCell>
        <mxCell id="A0Qf2ccuswHU8jVw-azO-40" value="&lt;span style=&quot;font-size: 18px;&quot;&gt;Mua thêm trang in&lt;/span&gt;" style="rounded=1;whiteSpace=wrap;html=1;fillColor=#FF9999;" vertex="1" parent="0drZBIcAvg-jgpcU-8fy-209">
          <mxGeometry x="132.63" y="694" width="171.75" height="74" as="geometry" />
        </mxCell>
        <mxCell id="A0Qf2ccuswHU8jVw-azO-48" style="edgeStyle=orthogonalEdgeStyle;rounded=0;orthogonalLoop=1;jettySize=auto;html=1;" edge="1" parent="0drZBIcAvg-jgpcU-8fy-209" source="A0Qf2ccuswHU8jVw-azO-43" target="A0Qf2ccuswHU8jVw-azO-47">
          <mxGeometry relative="1" as="geometry">
            <Array as="points">
              <mxPoint x="218" y="1304" />
              <mxPoint x="218" y="1304" />
            </Array>
          </mxGeometry>
        </mxCell>
        <mxCell id="A0Qf2ccuswHU8jVw-azO-43" value="" style="rhombus;whiteSpace=wrap;html=1;fillColor=#F19C99;" vertex="1" parent="0drZBIcAvg-jgpcU-8fy-209">
          <mxGeometry x="184.87" y="860" width="66.75" height="34" as="geometry" />
        </mxCell>
        <mxCell id="A0Qf2ccuswHU8jVw-azO-46" value="&lt;font style=&quot;font-size: 18px;&quot;&gt;Sinh viên mua thêm trang in&lt;/font&gt;" style="text;html=1;strokeColor=none;fillColor=none;align=center;verticalAlign=middle;whiteSpace=wrap;rounded=0;" vertex="1" parent="0drZBIcAvg-jgpcU-8fy-209">
          <mxGeometry x="35" y="830" width="183.25" height="30" as="geometry" />
        </mxCell>
        <mxCell id="A0Qf2ccuswHU8jVw-azO-99" style="edgeStyle=orthogonalEdgeStyle;rounded=0;orthogonalLoop=1;jettySize=auto;html=1;" edge="1" parent="0drZBIcAvg-jgpcU-8fy-209" source="A0Qf2ccuswHU8jVw-azO-47" target="A0Qf2ccuswHU8jVw-azO-49">
          <mxGeometry relative="1" as="geometry" />
        </mxCell>
        <mxCell id="A0Qf2ccuswHU8jVw-azO-47" value="&lt;span style=&quot;font-size: 18px;&quot;&gt;Thoát hệ thống&lt;/span&gt;" style="rounded=1;whiteSpace=wrap;html=1;fillColor=#FF9999;" vertex="1" parent="0drZBIcAvg-jgpcU-8fy-209">
          <mxGeometry x="132.37" y="1444" width="171.75" height="74" as="geometry" />
        </mxCell>
        <mxCell id="A0Qf2ccuswHU8jVw-azO-49" value="" style="html=1;shape=mxgraph.sysml.actFinal;strokeWidth=2;verticalLabelPosition=bottom;verticalAlignment=top;" vertex="1" parent="0drZBIcAvg-jgpcU-8fy-209">
          <mxGeometry x="184.87" y="1574" width="65.13" height="64" as="geometry" />
        </mxCell>
        <mxCell id="A0Qf2ccuswHU8jVw-azO-51" value="&lt;font style=&quot;font-size: 18px;&quot;&gt;Sinh viên không muốn mua thêm trang in&lt;/font&gt;" style="text;html=1;strokeColor=none;fillColor=none;align=center;verticalAlign=middle;whiteSpace=wrap;rounded=0;" vertex="1" parent="0drZBIcAvg-jgpcU-8fy-209">
          <mxGeometry x="25" y="1004" width="183.25" height="30" as="geometry" />
        </mxCell>
        <mxCell id="A0Qf2ccuswHU8jVw-azO-67" style="edgeStyle=orthogonalEdgeStyle;rounded=0;orthogonalLoop=1;jettySize=auto;html=1;entryX=0.5;entryY=0;entryDx=0;entryDy=0;" edge="1" parent="0drZBIcAvg-jgpcU-8fy-209" source="A0Qf2ccuswHU8jVw-azO-63" target="A0Qf2ccuswHU8jVw-azO-66">
          <mxGeometry relative="1" as="geometry" />
        </mxCell>
        <mxCell id="A0Qf2ccuswHU8jVw-azO-63" value="&lt;span style=&quot;font-size: 18px;&quot;&gt;Xác nhận chọn &lt;br&gt;máy in&lt;/span&gt;" style="rounded=1;whiteSpace=wrap;html=1;fillColor=#FF9999;" vertex="1" parent="0drZBIcAvg-jgpcU-8fy-209">
          <mxGeometry x="235" y="1114" width="171.75" height="74" as="geometry" />
        </mxCell>
        <mxCell id="A0Qf2ccuswHU8jVw-azO-66" value="" style="rhombus;whiteSpace=wrap;html=1;fillColor=#F19C99;" vertex="1" parent="0drZBIcAvg-jgpcU-8fy-209">
          <mxGeometry x="287.5" y="1264" width="66.75" height="34" as="geometry" />
        </mxCell>
        <mxCell id="A0Qf2ccuswHU8jVw-azO-95" value="&lt;span style=&quot;font-size: 18px;&quot;&gt;OK&lt;/span&gt;" style="text;html=1;strokeColor=none;fillColor=none;align=center;verticalAlign=middle;whiteSpace=wrap;rounded=0;" vertex="1" parent="0drZBIcAvg-jgpcU-8fy-209">
          <mxGeometry x="345" y="1324" width="61.75" height="30" as="geometry" />
        </mxCell>
        <mxCell id="A0Qf2ccuswHU8jVw-azO-36" style="edgeStyle=orthogonalEdgeStyle;rounded=0;orthogonalLoop=1;jettySize=auto;html=1;entryX=0;entryY=0.5;entryDx=0;entryDy=0;" edge="1" parent="1" source="A0Qf2ccuswHU8jVw-azO-9" target="A0Qf2ccuswHU8jVw-azO-35">
          <mxGeometry relative="1" as="geometry" />
        </mxCell>
        <mxCell id="A0Qf2ccuswHU8jVw-azO-41" style="edgeStyle=orthogonalEdgeStyle;rounded=0;orthogonalLoop=1;jettySize=auto;html=1;entryX=1;entryY=0.5;entryDx=0;entryDy=0;" edge="1" parent="1" source="A0Qf2ccuswHU8jVw-azO-37" target="A0Qf2ccuswHU8jVw-azO-40">
          <mxGeometry relative="1" as="geometry" />
        </mxCell>
        <mxCell id="A0Qf2ccuswHU8jVw-azO-60" style="edgeStyle=orthogonalEdgeStyle;rounded=0;orthogonalLoop=1;jettySize=auto;html=1;entryX=1;entryY=0.5;entryDx=0;entryDy=0;" edge="1" parent="1" source="A0Qf2ccuswHU8jVw-azO-54" target="VmOLZ52_Wkp5shSwFpp9-11">
          <mxGeometry relative="1" as="geometry">
            <mxPoint x="-190" y="950.0000000000002" as="targetPoint" />
            <Array as="points">
              <mxPoint x="120" y="1407" />
              <mxPoint x="120" y="767" />
            </Array>
          </mxGeometry>
        </mxCell>
        <mxCell id="A0Qf2ccuswHU8jVw-azO-65" style="edgeStyle=orthogonalEdgeStyle;rounded=0;orthogonalLoop=1;jettySize=auto;html=1;entryX=0.5;entryY=0;entryDx=0;entryDy=0;" edge="1" parent="1" source="A0Qf2ccuswHU8jVw-azO-53" target="A0Qf2ccuswHU8jVw-azO-63">
          <mxGeometry relative="1" as="geometry" />
        </mxCell>
        <mxCell id="A0Qf2ccuswHU8jVw-azO-68" style="edgeStyle=orthogonalEdgeStyle;rounded=0;orthogonalLoop=1;jettySize=auto;html=1;entryX=0.5;entryY=1;entryDx=0;entryDy=0;" edge="1" parent="1" source="A0Qf2ccuswHU8jVw-azO-66" target="A0Qf2ccuswHU8jVw-azO-53">
          <mxGeometry relative="1" as="geometry">
            <Array as="points">
              <mxPoint x="-135" y="1837" />
            </Array>
          </mxGeometry>
        </mxCell>
        <mxCell id="bI-rjmDT_k0yChibbdWb-24" style="edgeStyle=orthogonalEdgeStyle;rounded=0;orthogonalLoop=1;jettySize=auto;html=1;entryX=0;entryY=0.5;entryDx=0;entryDy=0;" edge="1" parent="1" source="A0Qf2ccuswHU8jVw-azO-66" target="bI-rjmDT_k0yChibbdWb-17">
          <mxGeometry relative="1" as="geometry">
            <Array as="points">
              <mxPoint x="-644" y="1923" />
            </Array>
          </mxGeometry>
        </mxCell>
        <mxCell id="bI-rjmDT_k0yChibbdWb-26" style="edgeStyle=orthogonalEdgeStyle;rounded=0;orthogonalLoop=1;jettySize=auto;html=1;entryX=1;entryY=0.5;entryDx=0;entryDy=0;" edge="1" parent="1" source="A0Qf2ccuswHU8jVw-azO-96" target="A0Qf2ccuswHU8jVw-azO-47">
          <mxGeometry relative="1" as="geometry">
            <Array as="points">
              <mxPoint x="96" y="2040" />
              <mxPoint x="-661" y="2040" />
            </Array>
          </mxGeometry>
        </mxCell>
        <mxCell id="bI-rjmDT_k0yChibbdWb-28" style="edgeStyle=orthogonalEdgeStyle;rounded=0;orthogonalLoop=1;jettySize=auto;html=1;entryX=0;entryY=0.75;entryDx=0;entryDy=0;" edge="1" parent="1" source="A0Qf2ccuswHU8jVw-azO-43" target="A0Qf2ccuswHU8jVw-azO-35">
          <mxGeometry relative="1" as="geometry">
            <Array as="points">
              <mxPoint x="-930" y="1433" />
              <mxPoint x="-930" y="1170" />
              <mxPoint x="-340" y="1170" />
              <mxPoint x="-340" y="986" />
            </Array>
          </mxGeometry>
        </mxCell>
      </root>
    </mxGraphModel>
  </diagram>
</mxfile>
